<svg width="460" height="270" viewBox="0 0 460 270" fill="none" xmlns="http://www.w3.org/2000/svg">
<path fill-rule="evenodd" clip-rule="evenodd" d="M237.899 14.1465C159.351 14.1465 92.5023 66.7605 92.5023 128.985C92.5023 191.21 159.351 245.646 237.899 245.646C316.447 245.646 384.502 191.21 384.502 128.985C384.502 66.7605 316.447 14.1465 237.899 14.1465ZM125.775 128.876C125.775 177.852 176.071 217.699 237.896 217.699C299.722 217.699 350.018 177.852 350.018 128.876C350.018 79.899 299.722 40.0522 237.896 40.0522C176.071 40.0522 125.775 79.899 125.775 128.876Z" fill="#DB1A06"/>
<path d="M237.896 49.2186C182.453 49.2186 137.348 84.9525 137.348 128.874C137.348 172.795 182.453 208.529 237.896 208.529C293.34 208.529 338.445 172.795 338.445 128.874C338.445 84.9525 293.34 49.2186 237.896 49.2186Z" fill="#DB1A06"/>
<path fill-rule="evenodd" clip-rule="evenodd" d="M416.032 255.413C416.032 263.004 423.828 269.181 433.412 269.181C442.997 269.181 450.793 263.004 450.793 255.411V155.133C452.323 150.321 459.002 119.148 460.502 83.8189C459.002 59.6483 455.225 0.109558 433.412 0.109558C419.664 0.109558 416.032 6.87935 416.032 10.4586V255.413ZM420.002 255.413V159.143H447.002V255.413C447.002 257.95 443.502 265.146 433.412 265.146C423.323 265.146 420.002 257.949 420.002 255.413ZM445.502 153.146H420.002V11.6465C420.225 11.078 426.42 6.14647 435.502 6.14647C447.502 6.14647 454.502 45.1465 456.502 83.8189C456.502 112.833 448.25 143.687 445.502 153.146ZM27 265C29.9349 267.347 33.6717 269 38 269C42.3283 269 47.0628 267.347 50 265C52.6965 262.842 54.037 260.947 54 258L52 108C66.1977 103.66 76.6736 92.6796 77 80C77.0046 79.8863 77.0069 80.1155 77 80L73.0208 10.2514C72.8796 7.72283 70.1438 5.78468 66.9797 5.88003C63.7856 5.99555 61.8542 8.13907 62 10.6677L65 75.0101H55L53.2033 10.3559C53.1315 7.82368 51.1432 4.92299 48 5C43.5 5 41.9282 8.46958 42 11L43 75.0101L34 75L36 11C36.0741 8.46958 32.3051 6.05012 30 6C27.334 5.94203 23.8658 7.82184 23.794 10.3541L22 75H12L16 11C16.1458 8.47141 13.1941 6.11552 10 6C6.87298 5.93216 4 7.5 4 9L-1.58325e-08 79C-0.0069438 79.1155 -1.80677e-07 78.8863 0.00462901 79C0.330987 91.6815 10.8023 103.66 25 108L23 258C22.963 260.947 24.3035 262.842 27 265ZM27 257L29 110H48L50 258C50 260 47 262.5 46 263C44.4446 264.24 35.5 265 33 264C28.5 263 26.9931 257.618 27 257ZM39 106C20.0146 106 6.5 96.5 5 79H18.0022H23H41.0022H45.0022H74C74 88 65 106 39 106ZM83.8763 128.985C83.8763 196.265 152.972 251.003 237.899 251.003C322.83 251.003 391.923 196.265 391.923 128.985C391.923 61.7052 322.828 6.96738 237.899 6.96738C152.972 6.96738 83.8763 61.7052 83.8763 128.985ZM92.5023 128.985C92.5023 66.7605 159.351 14.1465 237.899 14.1465C316.447 14.1465 384.502 66.7605 384.502 128.985C384.502 191.21 316.447 245.646 237.899 245.646C159.351 245.646 92.5023 191.21 92.5023 128.985Z" fill="black"/>
<path d="M420.002 153.146H445.502C448.25 143.687 456.502 112.833 456.502 83.8189C454.502 45.1465 447.502 6.14647 435.502 6.14647C426.42 6.14647 420.225 11.078 420.002 11.6465V153.146Z" fill="#857A7D"/>
<path d="M420.002 159.143V255.413C420.002 257.949 423.323 265.146 433.412 265.146C443.502 265.146 447.002 257.95 447.002 255.413V159.143H420.002Z" fill="#857A7D"/>
<path d="M5 79C6.5 96.5 20.0146 106 39 106C65 106 74 88 74 79H45.0022H41.0022H23H18.0022H5Z" fill="#857A7D"/>
<path d="M29 110L27 257C26.9931 257.618 28.5 263 33 264C35.5 265 44.4446 264.24 46 263C47 262.5 50 260 50 258L48 110H29Z" fill="#857A7D"/>
<path d="M65.5 11.5L69 75C65.4854 75 70.5325 75 69 75C65.9182 75 71.5 75 69 75C70.5 75 69.4999 75 73 75L69 11.5C69 9.5 68.2244 8.94423 67 9C66 9.04555 65.5 10 65.5 11.5Z" fill="#857A7D"/>
<path d="M46 11L47 75C43.4854 75 48.5325 75 47 75C49.5 75 45.9182 75 49 75C50.5 75 47.4999 75 51 75L50 11C50 9.25362 49 9 48 9C47 9 46 9.5 46 11Z" fill="#857A7D"/>
<path d="M28 11L26 75C22.4854 75 27.5325 75 26 75C26.5 75 29 75 28 75C28 75 28.5 75 30 75L32 11C32 9.25546 31 9 30 9C28.5 9 28 9.5 28 11Z" fill="#857A7D"/>
<path d="M8 12L4 75C0.48539 75 5.5325 75 4 75C6.5 75 3.91825 75 7 75C8.5 75 4.49989 75 8 75L12 12C12 10.6162 12 9 10 9C8.5 9 8.25531 9.84144 8 12Z" fill="#857A7D"/>
</svg>
